simulation
nRows=43
nColumns=15
endheader
time  TH_x TH_y TH_z SC_y  SC_z  SC_x  AC_y  AC_z  AC_x  GH_y  GH_z  GH_yy  EL_x  PS_y
0.000000  0.000000  0.000000  0.000000  -33.155102  -0.337486  1.785483  46.971923  8.552420  -4.245213  -3.392173  0.766133  19.233047  22.084247  115.200896
0.000305  0.000000  0.000000  0.000000  -33.155102  -0.337486  -8.214517  45.476398  15.782334  2.827670  -3.392173  0.766133  19.233047  22.084247  115.200896
0.000610  0.000000  0.000000  0.000000  -49.934758  9.063294  -8.214517  51.712700  -0.100547  10.477023  -7.325877  -4.547599  14.029722  24.827037  110.234819
0.000915  0.000000  0.000000  0.000000  -28.248081  13.413568  -8.214517  48.979895  -4.800325  9.086495  6.561650  1.520102  17.099434  31.572014  112.289533
0.001221  0.000000  0.000000  0.000000  -15.435936  18.750656  -8.214517  42.369521  3.632872  4.953789  -7.790038  -9.001388  18.152430  18.241154  116.112108
0.001526  0.000000  0.000000  0.000000  -45.687468  12.405765  -8.214517  51.531824  -2.711687  2.329904  -10.071921  2.116118  26.964567  13.449972  118.206214
0.001831  0.000000  0.000000  0.000000  -13.511386  11.611726  -8.214517  47.597981  -7.378436  8.432343  -4.883027  1.902139  19.649614  19.160288  121.924126
0.002136  0.000000  0.000000  0.000000  -16.266129  15.599103  -8.214517  44.660857  -5.909567  -6.926237  3.057136  -6.862527  10.260107  30.252857  117.648331
0.002441  0.000000  0.000000  0.000000  -27.636564  4.329597  -8.214517  54.031360  -0.727021  7.493737  -13.361600  9.759090  25.772297  19.177158  112.302835
0.002746  0.000000  0.000000  0.000000  -38.688236  11.051962  -8.214517  52.676443  5.683527  8.777316  -10.667177  6.955818  12.951592  19.822040  121.777588
0.003052  0.000000  0.000000  0.000000  -33.155102  -0.337486  -2.214517  46.487838  11.465524  -1.461377  -3.392173  0.766133  19.233047  22.084247  115.200896
0.003357  0.000000  0.000000  0.000000  -14.622357  1.283703  -2.214517  48.973691  -5.219967  -10.207793  -11.486234  2.453059  17.198507  31.400910  107.566546
0.003662  0.000000  0.000000  0.000000  -17.731508  14.079412  -2.214517  50.092751  -3.927606  -6.017599  -12.296525  10.364164  16.475563  20.295542  109.525689
0.003967  0.000000  0.000000  0.000000  -16.070584  8.450372  -2.214517  53.664850  4.000979  2.581413  -9.593654  -8.306742  19.122442  15.867585  116.964801
0.004272  0.000000  0.000000  0.000000  -38.871251  2.967583  -2.214517  53.376349  -7.489473  -2.817090  -12.493293  7.776391  26.819313  18.946897  111.231344
0.004577  0.000000  0.000000  0.000000  -21.738495  17.878527  -2.214517  45.647407  -7.430323  2.056332  1.940961  -9.175354  24.078884  30.082488  110.344445
0.004883  0.000000  0.000000  0.000000  -27.522322  3.202052  -2.214517  53.786120  -0.361177  1.068852  -5.433462  3.237974  23.121590  14.447503  116.557023
0.005188  0.000000  0.000000  0.000000  -18.817553  0.823355  -2.214517  50.187408  -5.813471  -1.070477  -13.316069  4.686583  18.107662  29.507901  123.527187
0.005493  0.000000  0.000000  0.000000  -15.658110  7.281117  -2.214517  55.874904  -5.301801  6.230453  -3.972835  10.011041  16.225496  14.466788  116.375707
0.005798  0.000000  0.000000  0.000000  -38.518049  11.839206  -2.214517  51.655590  0.860947  6.939546  -11.499607  -0.144917  28.524677  23.618872  114.030901
0.006103  0.000000  0.000000  0.000000  -19.325603  14.057508  -2.214517  56.329849  17.510622  -2.814953  5.918254  7.939802  14.318213  16.282945  106.393512
0.006408  0.000000  0.000000  0.000000  -16.215387  4.820506  -2.214517  51.880530  0.199676  -5.959698  -4.855366  -6.373024  23.794306  16.636491  117.282558
0.006713  0.000000  0.000000  0.000000  -28.278893  6.543339  -2.214517  45.881504  -10.676364  -3.727135  -8.959805  1.713161  27.099028  16.119564  123.582999
0.007019  0.000000  0.000000  0.000000  -43.001610  13.896736  -2.214517  54.806886  -1.120283  6.703938  0.532777  -3.489543  11.843962  31.631392  106.979947
0.007324  0.000000  0.000000  0.000000  -49.156535  2.762703  -2.214517  53.364689  -11.083504  -8.792101  4.506448  6.687716  13.264053  14.269393  112.540985
0.007629  0.000000  0.000000  0.000000  -35.310260  -2.228762  -2.214517  55.742471  -9.425935  -9.173931  3.460133  2.132042  15.511721  17.982088  113.549116
0.007934  0.000000  0.000000  0.000000  -33.155102  -0.337486  3.785483  47.159048  7.088083  -5.620288  -3.392173  0.766133  19.233047  22.084247  115.200896
0.008239  0.000000  0.000000  0.000000  -17.391158  2.647755  3.785483  57.139432  -8.555255  -0.550798  -9.214640  8.928782  28.786258  14.146193  121.718553
0.008544  0.000000  0.000000  0.000000  -13.426451  14.040382  3.785483  50.824469  0.323330  -11.829978  5.001546  -3.713190  9.547388  16.561782  123.911127
0.008850  0.000000  0.000000  0.000000  -18.624320  17.292132  3.785483  56.218452  24.091746  -1.930710  -10.816745  -8.406166  10.543883  19.749792  116.550380
0.009155  0.000000  0.000000  0.000000  -25.455461  4.234953  3.785483  54.150313  -16.543285  3.266416  -11.217748  0.216725  14.025135  25.407673  110.170556
0.009460  0.000000  0.000000  0.000000  -16.984488  -0.090599  3.785483  50.004043  -15.420610  -2.557072  4.433808  -2.741770  11.489472  16.912910  110.881639
0.009765  0.000000  0.000000  0.000000  -25.307054  9.934301  3.785483  53.978805  -14.942536  -5.021528  2.753194  5.143912  29.212310  25.485163  114.194908
0.010070  0.000000  0.000000  0.000000  -17.814313  0.413193  3.785483  52.266115  -13.893272  -8.529586  -12.201192  1.732677  18.256229  14.956441  120.828892
0.010375  0.000000  0.000000  0.000000  -14.088685  15.047542  3.785483  56.246538  6.985352  0.280234  -12.771510  6.854074  14.833052  12.665841  124.443347
0.010681  0.000000  0.000000  0.000000  -35.862354  18.276034  3.785483  39.042200  -13.954325  -4.983667  -6.818383  -6.078376  11.300883  15.173422  123.960646
0.010986  0.000000  0.000000  0.000000  -35.544785  11.864550  3.785483  49.136536  -14.653587  -12.148321  -5.963067  8.852062  20.083545  15.342397  123.213123
0.011291  0.000000  0.000000  0.000000  -16.419623  6.484028  3.785483  55.883599  -8.289716  -5.662389  -7.377565  5.367082  26.702467  13.691647  117.003791
0.011596  0.000000  0.000000  0.000000  -33.155102  -0.337486  9.785483  47.506632  2.674404  -9.700516  -3.392173  0.766133  19.233047  22.084247  115.200896
0.011901  0.000000  0.000000  0.000000  -18.708117  19.262366  9.785483  49.607660  -2.273772  -11.899558  5.928206  8.163176  20.718966  21.261588  124.175154
0.012206  0.000000  0.000000  0.000000  -29.146694  14.033144  9.785483  48.817606  -17.346382  -6.902607  5.323329  2.567684  19.066335  30.941929  118.714296
0.012511  0.000000  0.000000  0.000000  -17.507941  13.329730  9.785483  51.756667  -4.742684  -12.552973  -5.590665  3.102842  26.070415  15.479525  112.789568
0.012817  0.000000  0.000000  0.000000  -47.721603  14.671484  9.785483  46.215865  -19.281618  -3.263932  -11.282842  -1.946526  9.494379  28.649006  122.302878
